<?xml version="1.0" standalone="no"?>
<!DOCTYPE svg PUBLIC "-//W3C//DTD SVG 20010904//EN"
 "http://www.w3.org/TR/2001/REC-SVG-20010904/DTD/svg10.dtd">
<svg version="1.0" xmlns="http://www.w3.org/2000/svg"
 width="128.000000pt" height="128.000000pt" viewBox="0 0 128.000000 128.000000"
 preserveAspectRatio="xMidYMid meet">

<g transform="translate(0.000000,128.000000) scale(0.100000,-0.100000)"
fill="#000000" stroke="none">
<path d="M800 1215 l-24 -25 52 -53 52 -53 -27 -27 -27 -27 -26 25 -26 25
-104 -105 -104 -104 24 -26 24 -26 -27 -27 -27 -26 -65 64 -65 64 -27 -27 -27
-27 39 -40 39 -40 -132 -133 -132 -132 132 -132 133 -133 132 132 133 132 47
-46 c77 -74 141 -97 215 -78 34 10 65 34 152 119 111 109 145 160 146 219 0
62 -29 105 -162 239 l-132 132 27 29 27 28 -23 22 c-29 27 -35 27 -64 0 l-23
-22 -53 52 -53 52 -24 -25z m220 -270 l75 -75 -28 -27 -27 -27 -28 27 -28 27
-104 -105 -104 -104 22 -24 c28 -29 28 -38 -1 -65 l-23 -22 -79 80 -80 80 28
27 27 27 28 -27 28 -27 104 105 104 105 -27 28 -27 28 22 22 c13 12 27 22 33
22 6 0 44 -34 85 -75z m159 -169 c13 -20 21 -50 21 -75 0 -39 -6 -48 -92 -137
-51 -53 -106 -103 -122 -111 -38 -20 -101 -11 -132 18 l-24 23 27 28 27 28 26
-25 26 -25 104 105 104 104 -24 26 -23 25 23 25 c13 14 27 25 31 25 4 0 17
-15 28 -34z"/>
<path d="M168 368 c-8 -13 -25 -54 -38 -93 -18 -56 -33 -81 -76 -125 l-54 -56
27 -27 27 -27 56 54 c43 42 69 58 122 75 37 12 79 32 93 43 l27 21 -78 78
c-43 44 -81 79 -85 79 -4 0 -13 -10 -21 -22z"/>
</g>
</svg>
